<?xml version="1.0" encoding="utf-8"?>
<!-- Generator: Adobe Illustrator 22.1.0, SVG Export Plug-In . SVG Version: 6.00 Build 0)  -->
<svg version="1.1" id="Layer_1" xmlns="http://www.w3.org/2000/svg" xmlns:xlink="http://www.w3.org/1999/xlink" x="0px" y="0px"
	 viewBox="0 0 342 198.4" style="enable-background:new 0 0 342 198.4;" xml:space="preserve">
<style type="text/css">
	.st0{fill:#00AFBB;stroke:#4B4B4B;stroke-width:2;stroke-miterlimit:10;}
	.st1{fill:#D46C5B;stroke:#4B4B4B;stroke-width:2;stroke-miterlimit:10;}
	.st2{fill:#4B4B4B;}
	.st3{font-family:'BaskOldFace';}
	.st4{font-size:70px;}
	.st5{enable-background:new    ;}
</style>
<g id="surface31">
	<path class="st0" d="M195.2,21.3c-0.3-0.2-0.4-0.4-0.5-0.6l-3.3,6.6l-14.4,23l-7.2-4.4l-7.2,5.8l-7.2-11.5l-7.2-8.7l-7.2-4.4
		l-7.2-5.8l-7.2,12.9l-7.2,10.1l-7.2,21.6L105,76.2l-7.2,11.5l-7.2-2.9l-7.2,11.6L69,106.3h63.7l7.2-1.4l7.2-1.4l14.2-2.9l7.2-11.5
		l7.2-14.4l7.2-21.6l6.9-8.7l7-22.4C196.2,21.8,195.7,21.6,195.2,21.3z"/>
	<polygon class="st1" points="68.2,106.2 274,106.3 266.8,102 252.4,91.9 245.2,68.9 238,76.1 230.8,67.4 223.6,48.7 216.4,24.2 
		209.2,11.3 202,25.7 194.8,21.3 187.6,44.3 180.4,53 173.2,74.6 166,89 158.8,100.5 144.6,103.4 137.4,104.8 130.2,106.2 	"/>
</g>
<text transform="matrix(1 0 0 1 11.5498 175.7031)" class="st2 st3 st4">Less Likely</text>
<text transform="matrix(1 0 0 1 396.5186 198.3701)" style="font-family:'MyriadPro-Regular'; font-size:12px;"> </text>
</svg>
