<?xml version="1.0" encoding="utf-8"?>
<!-- Generator: Adobe Illustrator 22.1.0, SVG Export Plug-In . SVG Version: 6.00 Build 0)  -->
<svg version="1.1" id="Layer_1" xmlns="http://www.w3.org/2000/svg" xmlns:xlink="http://www.w3.org/1999/xlink" x="0px" y="0px"
	 viewBox="0 0 139 151" style="enable-background:new 0 0 139 151;" xml:space="preserve">
<style type="text/css">
	.st0{fill:#FEFEFE;}
	.st1{fill:#C83288;stroke:#000000;stroke-width:2;stroke-miterlimit:10;}
	.st2{fill:#ED5FA4;}
</style>
<g>
	<path class="st0" d="M140,76.5c0,24.1,0,48.3,0,72.4c0,2.3-0.3,3.2-3,3.2c-44.5-0.1-88.9-0.1-133.4,0c-2.5,0-2.8-0.7-2.7-2.9
		C1,100.7,1,52.3,0.9,3.8C0.9,0.9,2.1,1,4.2,1c44.3,0,88.6,0.1,132.9,0c2.6,0,3,0.8,3,3.1C140,28.2,140,52.3,140,76.5z"/>
	<path class="st1" d="M132.8,77.4c0,8.2,0.1,16.3,0,24.5c-0.1,7.6-3.3,13.4-9.9,17.3c-14.4,8.3-28.8,16.6-43.2,25
		c-6.8,3.9-13.6,3.9-20.4,0c-14.4-8.3-28.8-16.7-43.2-25c-6.6-3.8-9.9-9.6-9.9-17.3c0-16.7,0-33.3,0-50c0-7.6,3.2-13.5,9.9-17.3
		C30.5,26.3,44.9,18,59.3,9.7c6.8-3.9,13.6-3.9,20.4,0c14.3,8.2,28.5,16.5,42.8,24.7c7,4,10.4,10.1,10.4,18.1
		C132.8,60.7,132.8,69,132.8,77.4z"/>
	<path class="st2" d="M121,77c0,6,0,12,0,18c0,7.2-2.9,13-9.1,16.7c-11.4,6.8-22.8,13.6-34.5,19.9c-5,2.7-10.9,2.6-15.9-0.1
		c-11.5-6.3-22.8-13-34.1-19.7c-6.4-3.8-9.3-9.7-9.3-17.1c0-11.8,0-23.7,0-35.5c0-8,3.4-14,10.4-18C38.2,35.6,48,30,57.7,24.1
		c7.9-4.7,15.5-4.8,23.4-0.1c9.8,5.9,19.8,11.6,29.7,17.3c6.8,3.9,10.1,9.8,10.2,17.6C121,65,121,71,121,77z"/>
	<path class="st0" d="M97.1,77.2c0,11.2-0.1,22.3,0.1,33.5c0.1,3.4-1.1,4.2-4.3,4.2c-10.6,0.1-10.6,0.2-10.6-10.4
		c0-6.3-0.2-12.7,0.1-19c0.1-3.6-1.2-4.6-4.6-4.4c-6,0.2-12,0.2-18,0c-3.4-0.1-4.2,1.2-4.2,4.4c0.2,8.3-0.1,16.7,0.1,25
		c0.1,3.5-1.1,4.5-4.6,4.5c-10.3,0-10.3,0.1-10.3-10.1c0-20.3,0.1-40.7-0.1-61c0-3.7,1-4.8,4.8-4.8c10.1,0.1,10.1,0,10.1,9.9
		c0,4.8,0.1,9.7,0,14.5c-0.1,2.5,0.6,3.6,3.3,3.6c6.7-0.1,13.3-0.1,20,0c2.7,0.1,3.5-1,3.4-3.5c-0.1-6.7,0.1-13.3-0.1-20
		c-0.1-3.6,1.2-4.5,4.6-4.5C97,39.1,97,39,97,49.3C97.1,58.6,97.1,67.9,97.1,77.2z"/>
</g>
</svg>
