<?xml version="1.0" encoding="utf-8"?>
<!-- Generator: Adobe Illustrator 22.1.0, SVG Export Plug-In . SVG Version: 6.00 Build 0)  -->
<svg version="1.1" id="Layer_1" xmlns="http://www.w3.org/2000/svg" xmlns:xlink="http://www.w3.org/1999/xlink" x="0px" y="0px"
	 viewBox="0 0 300 300" style="enable-background:new 0 0 300 300;" xml:space="preserve">
<style type="text/css">
	.st0{fill:#444444;}
</style>
<g transform="translate(0.000000,245.000000) scale(0.100000,-0.100000)">
	<path class="st0" d="M1171.2,2306.9c-145.4-65.8-189.2-257.3-90-388.8l26.5-35.8l-35.8-66.9c-19.6-35.8-45-106.2-58.8-154.6
		c-19.6-76.2-21.9-109.6-15-244.6c5.8-132.7,3.5-159.2-11.5-171.9c-9.2-8.1-34.6-48.5-55.4-91.2C875.8,1042.3,795,894.6,782.3,878.5
		c-8.1-10.4-8.1-15,0-15c6.9,0,15,4.6,19.6,10.4c3.5,5.8,34.6,17.3,70.4,25.4c79.6,17.3,204.2,1.2,358.8-48.5
		c249.2-79.6,330-132.7,467.3-305.8c55.4-71.5,118.8-139.6,138.5-153.5c26.5-16.2,32.3-24.2,20.8-27.7
		c-139.6-42.7-211.2-99.2-270-215.8c-49.6-100.4-69.2-214.6-61.2-358.8l5.8-110.8l-141.9-6.9c-223.8-10.4-409.6,26.5-601.2,118.8
		C655.4-145,571.2-74.6,530.8,5c-23.1,47.3-27.7,72.7-26.5,154.6c1.2,116.5,24.2,190.4,115.4,372.7
		c139.6,279.2,140.8,342.7,1.2,79.6c-57.7-109.6-130.4-301.2-147.7-392.3c-20.8-102.7-10.4-225,25.4-298.8
		c36.9-75,129.2-182.3,171.9-200.8c18.5-6.9,33.5-17.3,33.5-21.9s-90-11.5-198.5-16.2C312.8-326.2,116.7-342.3,59-355
		c-81.9-18.5,71.5-42.7,396.9-62.3c241.2-15,1839.2-15,2076.9,0c189.2,11.5,378.5,31.2,409.6,41.5c58.8,20.8-123.5,43.8-452.3,57.7
		c-100.4,4.6-182.3,11.5-182.3,17.3c0,4.6,18.5,25.4,41.5,47.3c141.9,131.5,153.5,399.2,23.1,514.6c-49.6,42.7-91.2,65.8-141.9,77.3
		c-20.8,3.5-38.1,9.2-38.1,10.4s10.4,21.9,23.1,47.3c12.7,25.4,23.1,61.2,23.1,80.8c-1.2,47.3-47.3,155.8-91.2,211.2
		c-19.6,25.4-35.8,48.5-35.8,51.9s16.2,9.2,34.6,13.8c39.2,8.1,161.5,126.9,161.5,155.8c0,9.2-5.8,36.9-11.5,60
		c-13.8,48.5,0,85.4,87.7,228.5c72.7,117.7,99.2,198.5,105,323.1c4.6,94.6,2.3,120-19.6,178.8c-18.5,50.8-26.5,98.1-27.7,173.1
		c-2.3,124.6-16.2,155.8-86.5,201.9c-46.2,31.2-61.2,34.6-131.5,33.5c-64.6-2.3-81.9,2.3-103.8,21.9c-13.8,12.7-54.2,36.9-88.8,53.1
		c-144.2,65.8-278.1,80.8-458.1,51.9l-88.8-13.8l-28.8,34.6c-16.2,19.6-46.2,43.8-66.9,54.2
		C1338.5,2335.8,1230,2334.6,1171.2,2306.9z M1937.3,2173.1c251.5-60,463.8-272.3,510-511.2c24.2-129.2-3.5-399.2-36.9-348.5
		c-9.2,15-13.8,12.7-33.5-11.5c-46.2-57.7-90-161.5-110.8-263.1c-17.3-88.8-23.1-102.7-41.5-96.9c-25.4,5.8-27.7-23.1-3.5-43.8
		c9.2-8.1,17.3-21.9,17.3-30c0-17.3-60-50.8-129.2-72.7c-40.4-13.8-46.2-11.5-98.1,23.1c-71.5,48.5-151.2,115.4-295.4,250.4
		c-140.8,130.4-252.7,212.3-353.1,258.5c-65.8,31.2-85.4,34.6-161.5,30l-87.7-3.5l-20.8,57.7c-15,45-19.6,84.2-16.2,174.2
		c3.5,101.5,9.2,125.8,40.4,195c33.5,70.4,39.2,77.3,63.5,69.2c13.8-4.6,55.4-11.5,91.2-13.8c56.5-4.6,75-1.2,125.8,26.5
		c84.2,46.2,125.8,120,125.8,226.2v77.3l49.6,10.4C1650,2193.8,1855.4,2191.5,1937.3,2173.1z"/>
	<path class="st0" d="M2013.5,1376.9c-43.8-28.8-113.1-62.3-153.5-76.2c-129.2-42.7-168.5-99.2-116.5-165
		c45-56.5,192.7-110.8,308.1-110.8c46.2,0,50.8,2.3,68.1,43.8c39.2,93.5,30,361.2-11.5,360C2100,1428.8,2058.5,1404.6,2013.5,1376.9
		z"/>
</g>
</svg>
