<?xml version="1.0" encoding="utf-8"?>
<!-- Generator: Adobe Illustrator 22.1.0, SVG Export Plug-In . SVG Version: 6.00 Build 0)  -->
<svg version="1.1" id="Layer_1" xmlns="http://www.w3.org/2000/svg" xmlns:xlink="http://www.w3.org/1999/xlink" x="0px" y="0px"
	 viewBox="0 0 203.7 101" style="enable-background:new 0 0 203.7 101;" xml:space="preserve">
<style type="text/css">
	.st0{enable-background:new    ;}
	.st1{fill:#00AFBB;stroke:#4B4B4B;stroke-width:2;stroke-miterlimit:10;}
	.st2{fill:#D46C5B;stroke:#4B4B4B;stroke-width:2;stroke-miterlimit:10;}
</style>
<text transform="matrix(1 0 0 1 325.1852 199.0368)" style="font-family:'MyriadPro-Regular'; font-size:12px;"> </text>
<g id="surface31">
	<path class="st1" d="M124.1,15.8c-0.3-0.2-0.4-0.4-0.5-0.6l-3.1,6.2L107,43.1l-6.8-4.1l-6.8,5.5l-6.8-10.8l-6.8-8.2l-6.8-4.1
		l-6.8-5.5L59.6,28l-6.8,9.5L46,57.8l-6.8,9.7l-6.8,10.8l-6.8-2.7L19,86.4L5.4,95.8h59.9l6.8-1.3l6.8-1.3l13.4-2.7L99,79.6l6.8-13.5
		l6.8-20.3l6.5-8.2l6.6-21.1C125,16.3,124.6,16.1,124.1,15.8z"/>
	<polygon class="st2" points="4.7,95.7 198.2,95.8 191.4,91.7 177.9,82.2 171.1,60.6 164.3,67.4 157.6,59.2 150.8,41.6 144,18.6 
		137.2,6.4 130.5,20 123.7,15.8 116.9,37.5 110.2,45.6 103.4,65.9 96.6,79.5 89.9,90.3 76.5,93 69.7,94.3 63,95.7 	"/>
</g>
</svg>
