<?xml version="1.0" encoding="utf-8"?>
<!-- Generator: Adobe Illustrator 22.1.0, SVG Export Plug-In . SVG Version: 6.00 Build 0)  -->
<svg version="1.1" id="Layer_1" xmlns="http://www.w3.org/2000/svg" xmlns:xlink="http://www.w3.org/1999/xlink" x="0px" y="0px"
	 viewBox="0 0 212 105" style="enable-background:new 0 0 212 105;" xml:space="preserve">
<style type="text/css">
	.st0{fill:#00AFBB;stroke:#FFFFFF;stroke-width:1.067;stroke-linecap:round;stroke-linejoin:round;stroke-miterlimit:10;}
	.st1{fill:#D46C5B;stroke:#FFFFFF;stroke-width:1.067;stroke-linecap:round;stroke-linejoin:round;stroke-miterlimit:10;}
	.st2{enable-background:new    ;}
</style>
<g id="surface31">
	<path class="st0" d="M129.2,13.1c-0.3-0.2-0.4-0.4-0.5-0.6l-3.3,6.6l-14.4,23l-7.2-4.4l-7.2,5.8L89.4,32l-7.2-8.7L75,19l-7.2-5.8
		l-7.2,12.9l-7.2,10.1l-7.2,21.6L39,67.9l-7.2,11.5l-7.2-2.9l-7.2,11.6L3,98.1h63.7l7.2-1.4l7.2-1.4l14.2-2.9l7.2-11.5l7.2-14.4
		l7.2-21.6l6.9-8.7l7-22.4C130.2,13.5,129.7,13.3,129.2,13.1z"/>
	<path class="st1" d="M0,98h64.2l7.2-1.4l7.2-1.4l14.2-2.9l7.2-11.5l7.2-14.4l7.2-21.6l7.2-8.7l7.2-23l7.2,4.4l7.2-14.4l7.2,12.9
		l7.2,24.5l7.2,18.7L172,68l7.2-7.2l7.2,23l14.4,10.1l7.2,4.3L0,98L0,98z"/>
</g>
<text transform="matrix(1 0 0 1 330.5186 203.0368)" style="font-family:'MyriadPro-Regular'; font-size:12px;"> </text>
</svg>
